<?xml version="1.0" encoding="UTF-8" standalone="no"?>
<svg
   xmlns:dc="http://purl.org/dc/elements/1.1/"
   xmlns:cc="http://creativecommons.org/ns#"
   xmlns:rdf="http://www.w3.org/1999/02/22-rdf-syntax-ns#"
   xmlns:svg="http://www.w3.org/2000/svg"
   xmlns="http://www.w3.org/2000/svg"
   xmlns:xlink="http://www.w3.org/1999/xlink"
   xmlns:sodipodi="http://sodipodi.sourceforge.net/DTD/sodipodi-0.dtd"
   xmlns:inkscape="http://www.inkscape.org/namespaces/inkscape"
   version="1.1"
   id="Ebene_1"
   x="0px"
   y="0px"
   width="212.59842"
   height="70.866142"
   viewBox="0 0 212.59843 70.866145"
   enable-background="new 0 0 595 842"
   xml:space="preserve"
   inkscape:version="0.48.4 r9939"
   sodipodi:docname="cassis_logo.svg"><title
     id="title3043">CaSSiS Logo</title><metadata
     id="metadata111"><rdf:RDF><cc:Work
         rdf:about=""><dc:format>image/svg+xml</dc:format><dc:type
           rdf:resource="http://purl.org/dc/dcmitype/StillImage" /><dc:title>CaSSiS Logo</dc:title><dc:creator><cc:Agent><dc:title>Kai Christian Bader</dc:title></cc:Agent></dc:creator><dc:description>CaSSiS Logo</dc:description><cc:license
           rdf:resource="http://creativecommons.org/licenses/by-sa/3.0/" /></cc:Work><cc:License
         rdf:about="http://creativecommons.org/licenses/by-sa/3.0/"><cc:permits
           rdf:resource="http://creativecommons.org/ns#Reproduction" /><cc:permits
           rdf:resource="http://creativecommons.org/ns#Distribution" /><cc:requires
           rdf:resource="http://creativecommons.org/ns#Notice" /><cc:requires
           rdf:resource="http://creativecommons.org/ns#Attribution" /><cc:permits
           rdf:resource="http://creativecommons.org/ns#DerivativeWorks" /><cc:requires
           rdf:resource="http://creativecommons.org/ns#ShareAlike" /></cc:License></rdf:RDF></metadata><defs
     id="defs109"><radialGradient
       inkscape:collect="always"
       xlink:href="#SVGID_1_"
       id="radialGradient3109"
       gradientUnits="userSpaceOnUse"
       gradientTransform="translate(-201.5502,-314.33449)"
       cx="303.95609"
       cy="410.37549"
       r="11.1769" /><radialGradient
       inkscape:collect="always"
       xlink:href="#SVGID_2_"
       id="radialGradient3111"
       gradientUnits="userSpaceOnUse"
       gradientTransform="translate(-201.5502,-314.33449)"
       cx="314.24319"
       cy="422.60941"
       r="9.9375" /><radialGradient
       inkscape:collect="always"
       xlink:href="#SVGID_3_"
       id="radialGradient3113"
       gradientUnits="userSpaceOnUse"
       gradientTransform="translate(-201.5502,-314.33449)"
       cx="294.58499"
       cy="422.40039"
       r="9.1789999" /><radialGradient
       inkscape:collect="always"
       xlink:href="#SVGID_4_"
       id="radialGradient3115"
       gradientUnits="userSpaceOnUse"
       gradientTransform="translate(-201.5502,-314.33449)"
       cx="297.18701"
       cy="436.25391"
       r="10.9886" /><radialGradient
       inkscape:collect="always"
       xlink:href="#SVGID_5_"
       id="radialGradient3117"
       gradientUnits="userSpaceOnUse"
       gradientTransform="translate(-201.5502,-314.33449)"
       cx="282.06299"
       cy="429.0889"
       r="10.262" /><radialGradient
       inkscape:collect="always"
       xlink:href="#SVGID_6_"
       id="radialGradient3119"
       gradientUnits="userSpaceOnUse"
       gradientTransform="translate(-201.5502,-314.33449)"
       cx="275.207"
       cy="438.35941"
       r="8.5019999" /></defs><sodipodi:namedview
     pagecolor="#ffffff"
     bordercolor="#666666"
     borderopacity="1"
     objecttolerance="10"
     gridtolerance="10"
     guidetolerance="10"
     inkscape:pageopacity="0"
     inkscape:pageshadow="2"
     inkscape:window-width="1440"
     inkscape:window-height="834"
     id="namedview107"
     showgrid="false"
     width="1052.36px"
     units="mm"
     inkscape:zoom="3.4532341"
     inkscape:cx="93.012042"
     inkscape:cy="42.494594"
     inkscape:window-x="0"
     inkscape:window-y="27"
     inkscape:window-maximized="1"
     inkscape:current-layer="Ebene_1"
     inkscape:document-units="mm" /><radialGradient
     id="SVGID_1_"
     cx="303.95609"
     cy="410.37549"
     r="11.1769"
     gradientUnits="userSpaceOnUse"
     gradientTransform="translate(-201.5502,-314.33449)"><stop
       offset="0"
       style="stop-color:#E6DEE7"
       id="stop18" /><stop
       offset="0.24"
       style="stop-color:#573589"
       id="stop20" /><stop
       offset="0.39"
       style="stop-color:#3E2E6F"
       id="stop22" /><stop
       offset="0.61"
       style="stop-color:#2C2D56"
       id="stop24" /><stop
       offset="1"
       style="stop-color:#070E0C"
       id="stop26" /></radialGradient><radialGradient
     id="SVGID_2_"
     cx="314.24319"
     cy="422.60941"
     r="9.9375"
     gradientUnits="userSpaceOnUse"
     gradientTransform="translate(-201.5502,-314.33449)"><stop
       offset="0"
       style="stop-color:#E6DEE7"
       id="stop33" /><stop
       offset="0.24"
       style="stop-color:#573589"
       id="stop35" /><stop
       offset="0.39"
       style="stop-color:#3E2E6F"
       id="stop37" /><stop
       offset="0.61"
       style="stop-color:#2C2D56"
       id="stop39" /><stop
       offset="1"
       style="stop-color:#070E0C"
       id="stop41" /></radialGradient><radialGradient
     id="SVGID_3_"
     cx="294.58499"
     cy="422.40039"
     r="9.1789999"
     gradientUnits="userSpaceOnUse"
     gradientTransform="translate(-201.5502,-314.33449)"><stop
       offset="0"
       style="stop-color:#E6DEE7"
       id="stop48" /><stop
       offset="0.24"
       style="stop-color:#573589"
       id="stop50" /><stop
       offset="0.39"
       style="stop-color:#3E2E6F"
       id="stop52" /><stop
       offset="0.61"
       style="stop-color:#2C2D56"
       id="stop54" /><stop
       offset="1"
       style="stop-color:#070E0C"
       id="stop56" /></radialGradient><radialGradient
     id="SVGID_4_"
     cx="297.18701"
     cy="436.25391"
     r="10.9886"
     gradientUnits="userSpaceOnUse"
     gradientTransform="translate(-201.5502,-314.33449)"><stop
       offset="0"
       style="stop-color:#E6DEE7"
       id="stop63" /><stop
       offset="0.24"
       style="stop-color:#573589"
       id="stop65" /><stop
       offset="0.39"
       style="stop-color:#3E2E6F"
       id="stop67" /><stop
       offset="0.61"
       style="stop-color:#2C2D56"
       id="stop69" /><stop
       offset="1"
       style="stop-color:#070E0C"
       id="stop71" /></radialGradient><radialGradient
     id="SVGID_5_"
     cx="282.06299"
     cy="429.0889"
     r="10.262"
     gradientUnits="userSpaceOnUse"
     gradientTransform="translate(-201.5502,-314.33449)"><stop
       offset="0"
       style="stop-color:#E6DEE7"
       id="stop78" /><stop
       offset="0.24"
       style="stop-color:#573589"
       id="stop80" /><stop
       offset="0.39"
       style="stop-color:#3E2E6F"
       id="stop82" /><stop
       offset="0.61"
       style="stop-color:#2C2D56"
       id="stop84" /><stop
       offset="1"
       style="stop-color:#070E0C"
       id="stop86" /></radialGradient><radialGradient
     id="SVGID_6_"
     cx="275.207"
     cy="438.35941"
     r="8.5019999"
     gradientUnits="userSpaceOnUse"
     gradientTransform="translate(-201.5502,-314.33449)"><stop
       offset="0"
       style="stop-color:#E6DEE7"
       id="stop93" /><stop
       offset="0.24"
       style="stop-color:#573589"
       id="stop95" /><stop
       offset="0.39"
       style="stop-color:#3E2E6F"
       id="stop97" /><stop
       offset="0.61"
       style="stop-color:#2C2D56"
       id="stop99" /><stop
       offset="1"
       style="stop-color:#070E0C"
       id="stop101" /></radialGradient><g
     id="g3088"
     transform="translate(-65.973168,-72.652107)"><g
       transform="translate(-201.5502,-314.33451)"
       id="g3"><path
         style="fill:none;stroke:#58584e;stroke-width:1.00010002;stroke-miterlimit:22.92560005"
         inkscape:connector-curvature="0"
         id="path5"
         d="m 317.521,398.363 c 0.484,5.578 -8.806,28.554 -15.398,28.736 -8.399,0.233 -8.054,3.131 -11.042,9.513 -2.135,4.558 -7.06,2.309 -10.895,3.561"
         stroke-miterlimit="22.9256"
         clip-rule="evenodd" /><path
         style="fill:none;stroke:#58584e;stroke-width:0.56690001;stroke-miterlimit:22.92560005"
         inkscape:connector-curvature="0"
         id="path7"
         d="m 315.972,405.386 c -1.406,0.924 -2.408,2.055 -4.128,2.414 -0.673,0.14 -1.075,0.309 -1.778,0.269 -0.347,-0.02 -0.861,-0.175 -0.105,0.069"
         stroke-miterlimit="22.9256"
         clip-rule="evenodd" /><path
         style="fill:none;stroke:#58584e;stroke-width:0.56690001;stroke-miterlimit:22.92560005"
         inkscape:connector-curvature="0"
         id="path9"
         d="m 313.261,414.073 c 0.588,1.589 1.218,2.587 2.727,3.46 0.906,0.524 2.189,1.425 3.127,1.096"
         stroke-miterlimit="22.9256"
         clip-rule="evenodd" /><path
         style="fill:none;stroke:#58584e;stroke-width:0.56690001;stroke-miterlimit:22.92560005"
         inkscape:connector-curvature="0"
         id="path11"
         d="m 308.224,421.737 c -1.142,0.751 -1.906,1.746 -3.252,1.688 -1.584,-0.067 -4.858,-1.474 -6.123,-1.077"
         stroke-miterlimit="22.9256"
         clip-rule="evenodd" /><path
         style="fill:none;stroke:#58584e;stroke-width:0.56690001;stroke-miterlimit:22.92560005"
         inkscape:connector-curvature="0"
         id="path13"
         d="m 303.691,426.969 c -0.517,0.955 -0.646,2.818 -0.446,3.896 0.142,0.762 0.759,2.513 1.618,2.689"
         stroke-miterlimit="22.9256"
         clip-rule="evenodd" /><path
         style="fill:none;stroke:#58584e;stroke-width:0.56690001;stroke-miterlimit:22.92560005"
         inkscape:connector-curvature="0"
         id="path15"
         d="m 294.58,429.809 c -0.889,0.584 -1.633,1.074 -2.76,1.064 -1.534,-0.015 -3.032,-0.626 -3.537,-2.177"
         stroke-miterlimit="22.9256"
         clip-rule="evenodd" /></g><path
       style="fill:url(#radialGradient3109);fill-rule:evenodd;stroke:#000000;stroke-width:0.56690001;stroke-miterlimit:22.92560005"
       inkscape:connector-curvature="0"
       id="path28"
       d="m 112.2568,91.882503 c -2.359,-3.589 -7.212,-4.568 -10.835,-2.186 -3.622996,2.383 -4.647996,7.226 -2.287996,10.814997 2.358996,3.589 7.212996,4.567 10.835996,2.185 3.623,-2.382 4.647,-7.224997 2.287,-10.813997 z"
       stroke-miterlimit="22.9256"
       clip-rule="evenodd" /><ellipse
       style="fill-rule:evenodd;stroke:#a69dc9;stroke-width:0.56690001;stroke-miterlimit:22.92560005"
       sodipodi:ry="1.701"
       sodipodi:rx="0.66900003"
       sodipodi:cy="410.80099"
       sodipodi:cx="300.39999"
       id="ellipse30"
       ry="1.701"
       rx="0.66900003"
       cy="410.80099"
       cx="300.39999"
       stroke-miterlimit="22.9256"
       clip-rule="evenodd"
       transform="matrix(-0.9932,0.1168,-0.1168,-0.9932,445.1915,469.3542)"
       d="m 301.06899,410.80099 c 0,0.93944 -0.29952,1.701 -0.669,1.701 -0.36947,0 -0.669,-0.76156 -0.669,-1.701 0,-0.93943 0.29953,-1.701 0.669,-1.701 0.36948,0 0.669,0.76157 0.669,1.701 z" /><path
       style="fill:url(#radialGradient3111);fill-rule:evenodd;stroke:#000000;stroke-width:0.56690001;stroke-miterlimit:22.92560005"
       inkscape:connector-curvature="0"
       id="path43"
       d="m 121.7708,105.2145 c -1.957,-2.977 -5.981,-3.788 -8.985,-1.812 -3.005,1.976 -3.854,5.992 -1.897,8.968 1.957,2.976 5.98,3.788 8.986,1.813 3.004,-1.977 3.853,-5.993 1.896,-8.969 z"
       stroke-miterlimit="22.9256"
       clip-rule="evenodd" /><ellipse
       style="fill-rule:evenodd;stroke:#a69dc9;stroke-width:0.56690001;stroke-miterlimit:22.92560005"
       sodipodi:ry="1.326"
       sodipodi:rx="0.52100003"
       sodipodi:cy="428.20499"
       sodipodi:cx="316.22"
       id="ellipse45"
       ry="1.326"
       rx="0.52100003"
       cy="428.20499"
       cx="316.22"
       stroke-miterlimit="22.9256"
       clip-rule="evenodd"
       transform="matrix(-0.2474,0.9689,-0.9689,-0.2474,607.7925,-86.589597)"
       d="m 316.741,428.20499 c 0,0.73233 -0.23326,1.326 -0.521,1.326 -0.28774,0 -0.521,-0.59367 -0.521,-1.326 0,-0.73233 0.23326,-1.326 0.521,-1.326 0.28774,0 0.521,0.59367 0.521,1.326 z" /><path
       style="fill:url(#radialGradient3113);fill-rule:evenodd;stroke:#000000;stroke-width:0.56690001;stroke-miterlimit:22.92560005"
       inkscape:connector-curvature="0"
       id="path58"
       d="m 100.8628,105.6585 c -1.762996,-2.682 -5.388996,-3.413 -8.095996,-1.633 -2.707,1.78 -3.473,5.398 -1.709,8.08 1.763,2.682 5.389,3.413 8.096,1.633 2.706996,-1.78 3.472996,-5.398 1.708996,-8.08 z"
       stroke-miterlimit="22.9256"
       clip-rule="evenodd" /><ellipse
       style="fill-rule:evenodd;stroke:#a69dc9;stroke-width:0.56690001;stroke-miterlimit:22.92560005"
       sodipodi:ry="1.1950001"
       sodipodi:rx="0.47"
       sodipodi:cy="425.16599"
       sodipodi:cx="291.85001"
       id="ellipse60"
       ry="1.1950001"
       rx="0.47"
       cy="425.16599"
       cx="291.85001"
       stroke-miterlimit="22.9256"
       clip-rule="evenodd"
       transform="matrix(-0.8996,0.4368,-0.4368,-0.8996,538.5441,365.8212)"
       d="m 292.32001,425.16599 c 0,0.65998 -0.21043,1.195 -0.47,1.195 -0.25958,0 -0.47,-0.53502 -0.47,-1.195 0,-0.65999 0.21042,-1.195 0.47,-1.195 0.25957,0 0.47,0.53501 0.47,1.195 z" /><path
       style="fill:url(#radialGradient3115);fill-rule:evenodd;stroke:#000000;stroke-width:0.56690001;stroke-miterlimit:22.92560005"
       inkscape:connector-curvature="0"
       id="path73"
       d="m 104.9018,119.0265 c -2.118,-3.222 -6.474996,-4.101 -9.726996,-1.962 -3.253,2.139 -4.172,6.486 -2.054,9.708 2.118,3.222 6.474,4.101 9.726996,1.962 3.252,-2.138 4.172,-6.486 2.054,-9.708 z"
       stroke-miterlimit="22.9256"
       clip-rule="evenodd" /><ellipse
       style="fill-rule:evenodd;stroke:#a69dc9;stroke-width:0.56690001;stroke-miterlimit:22.92560005"
       sodipodi:ry="1.436"
       sodipodi:rx="0.56400001"
       sodipodi:cy="443.61301"
       sodipodi:cx="298.04199"
       id="ellipse75"
       ry="1.436"
       rx="0.56400001"
       cy="443.61301"
       cx="298.04199"
       stroke-miterlimit="22.9256"
       clip-rule="evenodd"
       transform="matrix(-0.5084,0.8611,-0.8611,-0.5084,630.0224,98.183903)"
       d="m 298.60599,443.61301 c 0,0.79308 -0.25251,1.436 -0.564,1.436 -0.31149,0 -0.564,-0.64292 -0.564,-1.436 0,-0.79308 0.25251,-1.436 0.564,-1.436 0.31149,0 0.564,0.64292 0.564,1.436 z" /><path
       style="fill:url(#radialGradient3117);fill-rule:evenodd;stroke:#000000;stroke-width:0.56690001;stroke-miterlimit:22.92560005"
       inkscape:connector-curvature="0"
       id="path88"
       d="m 89.042804,112.3855 c -1.922,-2.922 -5.873,-3.719 -8.822,-1.778 -2.95,1.939 -3.784,5.882 -1.862,8.805 1.921,2.922 5.872,3.719 8.821,1.778 2.95,-1.94 3.785,-5.882 1.863,-8.805 z"
       stroke-miterlimit="22.9256"
       clip-rule="evenodd" /><ellipse
       style="fill-rule:evenodd;stroke:#a69dc9;stroke-width:0.56690001;stroke-miterlimit:22.92560005"
       sodipodi:ry="1.302"
       sodipodi:rx="0.51099998"
       sodipodi:cy="433.95401"
       sodipodi:cx="280.85599"
       id="ellipse90"
       ry="1.302"
       rx="0.51099998"
       cy="433.95401"
       cx="280.85599"
       stroke-miterlimit="22.9256"
       clip-rule="evenodd"
       transform="matrix(-0.7924,0.61,-0.61,-0.7924,566.5754,292.1418)"
       d="m 281.36699,433.95401 c 0,0.71907 -0.22878,1.302 -0.511,1.302 -0.28222,0 -0.511,-0.58293 -0.511,-1.302 0,-0.71907 0.22878,-1.302 0.511,-1.302 0.28222,0 0.511,0.58293 0.511,1.302 z" /><path
       style="fill:url(#radialGradient3119);fill-rule:evenodd;stroke:#000000;stroke-width:0.56690001;stroke-miterlimit:22.92560005"
       inkscape:connector-curvature="0"
       id="path103"
       d="m 79.556804,122.6625 c -1.51,-2.296 -4.613,-2.922 -6.931,-1.397 -2.317,1.523 -2.973,4.621 -1.463,6.917 1.509,2.296 4.613,2.922 6.931,1.397 2.317,-1.523 2.973,-4.621 1.463,-6.917 z"
       stroke-miterlimit="22.9256"
       clip-rule="evenodd" /><ellipse
       transform="translate(-201.5502,-314.33451)"
       style="fill-rule:evenodd;stroke:#a69dc9;stroke-width:0.56690001;stroke-miterlimit:22.92560005"
       sodipodi:ry="1.023"
       sodipodi:rx="0.40200001"
       sodipodi:cy="438.79099"
       sodipodi:cx="272.995"
       id="ellipse105"
       ry="1.023"
       rx="0.40200001"
       cy="438.79099"
       cx="272.995"
       stroke-miterlimit="22.9256"
       clip-rule="evenodd"
       d="m 273.397,438.79099 c 0,0.56498 -0.17999,1.023 -0.402,1.023 -0.22202,0 -0.402,-0.45802 -0.402,-1.023 0,-0.56499 0.17998,-1.023 0.402,-1.023 0.22201,0 0.402,0.45801 0.402,1.023 z" /></g><text
     xml:space="preserve"
     style="font-size:40.00000381px;font-style:normal;font-weight:normal;line-height:125%;letter-spacing:0px;word-spacing:0px;fill:#000000;fill-opacity:1;stroke:none;font-family:Sans"
     x="62.260483"
     y="48.933094"
     id="text3044"
     sodipodi:linespacing="125%"><tspan
       sodipodi:role="line"
       id="tspan3046"
       x="62.260483"
       y="48.933094"
       style="font-style:italic;font-variant:normal;font-weight:normal;font-stretch:normal;font-family:Georgia;-inkscape-font-specification:Georgia Italic">CaSSiS</tspan></text>
</svg>